<svg height="74.1843" viewBox="0 0 73.9061 74.1843" width="73.9061" xmlns="http://www.w3.org/2000/svg"><path d="m36.9086 72.1846c-15.1006 0-27.8574-6-27.8574-13.1025v-26.7822h55.7158v26.7822c0 7.1025-12.7578 13.1025-27.8584 13.1025z" fill="#919191"/><path d="m62.7668 34.2999v24.7822c0 5.2408-11.0583 11.1023-25.8579 11.1023s-25.8579-5.8615-25.8579-11.1023v-24.7822zm4-4h-59.7159v28.7822c0 8.3408 13.3679 15.1023 29.8579 15.1023s29.8579-6.7615 29.8579-15.1023v-28.7822z"/><path d="m36.9086 43.4023c-15.1006 0-27.8574-6-27.8574-13.1025s12.7568-13.1025 27.8574-13.1025 27.8584 6 27.8584 13.1025-12.7578 13.1025-27.8584 13.1025z" fill="#919191"/><path d="m36.9089 19.1976c14.7996 0 25.8579 5.8615 25.8579 11.1023s-11.0583 11.1023-25.8579 11.1023-25.8579-5.8615-25.8579-11.1023 11.0583-11.1023 25.8579-11.1023m0-4c-16.49 0-29.8579 6.7615-29.8579 15.1023s13.3679 15.1023 29.8579 15.1023 29.8579-6.7615 29.8579-15.1023-13.3679-15.1023-29.8579-15.1023z"/><path d="m63.0369 31.7067c12.4752 2.0198 10.9307 9.0297.7129 10.3366" fill="none" stroke="#000" stroke-miterlimit="10" stroke-width="4"/><path d="m10.8692 31.7067c-12.4752 2.0198-10.9307 9.0297-.7129 10.3366" fill="none" stroke="#000" stroke-miterlimit="10" stroke-width="4"/><path d="m19.8119 37.2002c-4.9844 0-8.5352-1.4512-9.9971-4.0869-1.5498-2.7939-.6846-6.9805 2.374-11.4883 3.375-4.9756 8.9268-9.7637 15.6318-13.4824 7.0371-3.9033 14.5889-6.1426 20.7188-6.1426 4.9854 0 8.5361 1.4521 9.998 4.0879 1.5498 2.793.6846 6.9805-2.374 11.4873-3.375 4.9756-8.9268 9.7637-15.6318 13.4824-7.0381 3.9043-14.5898 6.1426-20.7197 6.1426z" fill="#919191"/><path d="m48.5407 4c4.1635.0001 7.1702 1.1147 8.248 3.0579 2.542 4.583-4.2853 15.0726-17.2272 22.2512-6.7501 3.744-13.9482 5.8913-19.7489 5.8913-4.1642 0-7.1708-1.1146-8.2487-3.0579-1.1531-2.0787-.3007-5.5907 2.2799-9.3945 3.1561-4.6523 8.6042-9.3383 14.9473-12.8566 6.7499-3.7439 13.9484-5.8912 19.7495-5.8914m-.0005-4c-6.2441.0001-14.0441 2.153-21.6891 6.3934-14.4203 7.9984-22.8307 20.3954-18.7849 27.6892 1.9009 3.427 6.2128 5.1177 11.7466 5.1177 6.2443 0 14.0441-2.153 21.6891-6.3934 14.4203-7.9985 22.8306-20.3954 18.7849-27.6893-1.9009-3.4269-6.2127-5.1177-11.7466-5.1176z"/><path d="m26.5719 23.2815c-4.4345-7.995 10.3192-16.1783 14.7537-8.1834" fill="none" stroke="#000" stroke-miterlimit="10" stroke-width="5"/></svg>