<svg height="73.9686" viewBox="0 0 73.9581 73.9686" width="73.9581" xmlns="http://www.w3.org/2000/svg"><path d="m22.157 70.3827c-2.7412 0-6.4648-.6035-8.6328-3.4814-2.0186-2.6797-2.1191-6.6719-.2822-11.2422 2.0088-4.998 6.0254-9.9434 11.3096-13.9248 6.0234-4.5391 12.8027-7.1416 18.5986-7.1416 2.7412 0 6.4658.6045 8.6338 3.4824 2.0186 2.6787 2.1182 6.6709.2822 11.2412-2.0088 4.999-6.0254 9.9443-11.3096 13.9248-6.0244 4.5391-12.8037 7.1416-18.5996 7.1416z" fill="#919191"/><path d="m43.1506 37.0927c1.7789 0 5.0065.3232 6.6365 2.4867 1.4495 1.9239 1.4344 5.1332-.0411 8.805-1.8145 4.5154-5.6396 9.2029-10.4945 12.8607-5.517 4.1566-11.9073 6.6381-17.0942 6.6381-1.7789 0-5.0068-.3231-6.637-2.4867-1.4495-1.9239-1.4344-5.1332.0411-8.805 1.8145-4.5154 5.6396-9.2029 10.4945-12.8607 5.517-4.1565 11.9075-6.6381 17.0947-6.6381m-.0005-5c-6.0693.0001-13.4285 2.6161-20.1029 7.6447-11.6681 8.7908-16.8259 21.6259-11.5204 28.6678 2.2706 3.0138 6.0894 4.478 10.6304 4.478 6.0693 0 13.4286-2.6161 20.1029-7.6447 11.6681-8.7908 16.8259-21.6259 11.5204-28.6678-2.2706-3.0138-6.0894-4.4781-10.6304-4.478z"/><path d="m15.1902 71.4686c-3.4053 0-8.0293-.75-10.7217-4.3232-2.5605-3.3984-2.6357-8.4785-.2109-14.3047 2.6104-6.2734 7.7363-12.5068 14.4316-17.5508 7.7686-5.8525 16.4502-9.209 23.8213-9.209 3.4053 0 8.0293.75 10.7217 4.3242 5.5068 7.3096-1.0059 21.8975-14.2227 31.8545-7.7666 5.8525-16.4492 9.209-23.8193 9.209z" fill="#919191"/><path d="m42.511 23.5807v5c2.8361 0 6.6517.5775 8.7245 3.3286 4.0939 5.4339-.5377 18.415-13.7297 28.3541-7.2351 5.451-15.5774 8.7053-22.3156 8.7053-2.8365 0-6.653-.5775-8.7257-3.3285-4.0939-5.434.5377-18.415 13.7297-28.3541 7.2347-5.4507 15.5771-8.705 22.3158-8.7054zm-.0012 0c-7.5667.0003-16.8617 3.3361-25.3242 9.7119-14.5687 10.9762-21.1566 26.8057-14.7145 35.3562 2.7001 3.5837 7.2594 5.3198 12.7191 5.3198 7.5667 0 16.8617-3.3361 25.3242-9.7119 14.5686-10.9763 21.1565-26.8058 14.7145-35.3563-2.7001-3.5837-7.2594-5.3201-12.7191-5.3198z"/><ellipse cx="27.6005" cy="46.7848" fill="#919191" rx="28.1854" ry="14.6525" transform="matrix(.79869013 -.60174254 .60174254 .79869013 -22.5961 26.0267)"/><path d="m51.1391 28.5361c4.1918-17.6066 21.2553-24.8544 21.2553-24.8544" fill="none" stroke="#000" stroke-miterlimit="10" stroke-width="8"/></svg>