<?xml version="1.0" encoding="UTF-8"?>
<svg id="Layer_2" data-name="Layer 2" xmlns="http://www.w3.org/2000/svg" width="413.6078" height="320" viewBox="0 0 413.6078 320">
  <g id="Layer_1-2" data-name="Layer 1">
    <g>
      <g>
        <path d="M160,315c-85.4678,0-155-69.5327-155-155S74.5322,5,160,5s155,69.5327,155,155-69.5322,155-155,155Z" style="fill-rule: evenodd;"/>
        <path d="M160,10c40.0664,0,77.7347,15.6027,106.066,43.934,28.3312,28.3313,43.934,65.9995,43.934,106.066s-15.6028,77.7347-43.934,106.066c-28.3313,28.3313-65.9996,43.934-106.066,43.934s-77.7347-15.6027-106.066-43.934c-28.3312-28.3313-43.934-65.9995-43.934-106.066s15.6028-77.7347,43.934-106.066C82.2653,25.6027,119.9336,10,160,10M160,0C71.6344,0,0,71.6345,0,160s71.6344,160,160,160,160-71.6345,160-160S248.3656,0,160,0h0Z" style="fill: #b3b3b3;"/>
      </g>
      <g>
        <path d="M160,170c-5.5137,0-10-4.4858-10-10s4.4863-10,10-10,10,4.4858,10,10-4.4863,10-10,10Z" style="fill: #ccc; fill-rule: evenodd;"/>
        <path d="M160,155c2.757,0,5,2.243,5,5s-2.243,5-5,5-5-2.243-5-5,2.243-5,5-5M160,145c-8.2843,0-15,6.7157-15,15s6.7157,15,15,15,15-6.7157,15-15-6.7157-15-15-15h0Z" style="fill: #b3b3b3;"/>
      </g>
      <line x1="320" y1="160" x2="413.6078" y2="160" style="fill: none; stroke: #b3b3b3; stroke-miterlimit: 10; stroke-width: 10px;"/>
    </g>
  </g>
</svg>