<?xml version="1.0" encoding="UTF-8"?>
<svg id="Layer_1" data-name="Layer 1" xmlns="http://www.w3.org/2000/svg" width="1991.5" height="1110" viewBox="0 0 1991.5 1110">
  <g>
    <polygon points="181.5 803.2734 721.5 456.9146 721.5 762.7266 181.5 1109.085 181.5 803.2734" style="fill: #b25326;"/>
    <path d="M721,457.8295v304.6239l-539,345.7172v-304.6239l539-345.7172M722,456L181,803v307l541-347v-307h0Z"/>
  </g>
  <g>
    <polygon points="1.7056 802.5 541.1465 456.5 720.2944 456.5 180.8535 802.5 1.7056 802.5" style="fill: #b25326;"/>
    <path d="M718.5887,457L180.7068,802H3.4113l537.8818-345h177.2955M722,456h-181L0,803h181l541-347h0Z"/>
  </g>
  <g>
    <rect x="72.5" y="803.5" width="108" height="306" style="fill: #b25326;"/>
    <path d="M180,804v305h-107v-305h107M181,803h-109v307h109v-307h0Z"/>
  </g>
</svg>