<?xml version="1.0" encoding="UTF-8"?>
<svg id="Layer_1" xmlns="http://www.w3.org/2000/svg" version="1.1" viewBox="0 0 128 128">
  <!-- Generator: Adobe Illustrator 29.3.1, SVG Export Plug-In . SVG Version: 2.1.0 Build 151)  -->
  <defs>
    <style>
      .st0 {
        fill: #fe5757;
      }

      .st1 {
        fill: #fee7b0;
      }

      .st2 {
        fill: #e4c06b;
      }

      .st3 {
        fill: #dc3838;
      }

      .st4 {
        fill: #f3d99e;
      }

      .st5 {
        fill: #fcda8a;
      }

      .st6 {
        fill: #fed168;
      }

      .st7 {
        fill: #f0ad3d;
      }

      .st8 {
        fill: #fee8b7;
      }
    </style>
  </defs>
  <rect class="st0" x="13.6" y="13.6" width="100.8" height="100.8" rx="23.6" ry="23.6"/>
  <path class="st3" d="M28.7,63.2c-.9-.5-1.8-1.3-2.6-2s-.7-.5-.5-.7l8.6-4.7-4.8-8.8,9.8-1.5-1.2-10,9.8,2,2.2-9.6,8.3,5.5c.6,0,5.2-8,5.7-8.1.5-.1,4.9,7.4,5.9,8.1l8.3-5.5,2.2,9.6,9.8-2-1.2,10,9.8,1.5-3.1,5.7h-.4c-1.7-1.1-3.6-2.2-5.8-2.1-.5,0-.9-.4-1.1-.9-1.7-4.6-5.7-6.5-10.3-4.9-.5.1-1.1.1-1.6-.3-2.1-1.8-3.8-3-6.6-1.8s-2.5,1.1-3.7,1.9l-.9-.3c-3.4-2.2-5.7-1.3-8.9.5-1.8,1.3-2.8,2.1-5,1.1-3.6-.6-6.1,2.2-8.1,4.9-5-.3-7.8,1.6-8.5,6.6-.5,1.1-1.5,1.9-3,2.1-1.5.6-2.8,1.7-2.8,3.4l-.4.3h.2Z"/>
  <path class="st3" d="M99.3,72.5c.5.4,1,1,1.4,1.6s.7.7.5.9l-9.2,3.3,3.1,9.5-10-.5-.5,10-9.2-3.8-4.2,8.9-7.1-6.9-7,6.9c-.3,0-.3-.2-.5-.4-1.3-2.4-2.2-5.7-3.5-8.2s-.1-.3-.3-.4l-9.2,3.8-.5-10-10,.5,1.7-5.5c.5,0,.9-.1,1.4,0,6.3,1,12,1.8,18.4,2,9.5.3,18.6.1,27.6-3,6.1-2.1,10.5-5,15.8-8.4.3-.2.7-.3,1.1-.4h0Z"/>
  <g>
    <path class="st7" d="M95.7,52.8c.3.3,1.2,1.9,1.3,2.2s0,1.2.3,1.5.9.4,1.2.6c4.5,2.9,10.7,6.9,4.8,12.3-1,.9-2.8,2.4-4,3.2-9.5,6.9-20,11.5-31.9,12.1-10.5.5-22.3,0-32.6-2.2-2.5-.5-5.9-1.4-8.4-2.2s-2.4-.7-2.8-1.4c-.7-1.6,0-6.7,1.1-8.2s2.4-2,2.7-2.4c.5-.8.8-3.7,1.1-4.9s0-.7.1-1.1c.5-1.4,1.6-2.2,2.9-2.8s2-.5,2.4-.9c.5-.6.8-2.6,1.1-3.5,1.5-3.9,4.1-4.2,8-4.3,2-2.7,4.3-5.3,8-4.9s1.9.7,2.8.5,1.9-1.3,2.4-1.6c1.4-.8,3.9-2,5.5-1.8s2.9,1.3,4.3,1.7c.9-.6,1.8-1.1,2.8-1.6,1.9-.8,3.3-1.3,5.3-.5s2.6,2.1,3,2.2c.9.1,2.7-.6,3.8-.7,2.8,0,4.7.9,6.3,3.1s1.3,2.8,1.8,3.1,1.3.1,2,.2c1.1.2,3.8,1.6,4.6,2.4Z"/>
    <g>
      <path class="st1" d="M97.8,71.7c0-.5-.3-1-.5-1.5-.5-.9-1.8-2.3-2.1-3-.3,0-.4-.3-.4-.7-.3,0-.5-.2-.6-.5-.1,0-1.9-1.8-2.2-2.1-.4.3-.5.1-.3-.3-.7-.7-1.5-1.6-2.4-2.1v-.2c0-.9.2-1.6-.8-.7h-.4c0,0-2.8-1.6-2.8-1.6-.2-.2-.3-.5-.2-1-.5.1-.8.2-1.1.2l-2.4-1-.3-.3c.9-2.2,0-3.7-.7-.5h-.4c0,.1-2.9-.5-2.9-.5-.1,0-.3-.1-.3-.3l.3-1.7c.2-2.5-.9.5-1.1,1.3h-.4c0,.1-3.2-.4-3.2-.4l-.3-.2c.1-2.1-1.3-3.4-.7-.1l-.3.2-2.6-.2-.3-.3c.2-2.8-.8-2.6-.9,0l-.3.2-3.8.2c-.1,0-.3,0-.3-.1-.1-2.4-1.6-2.8-.7,0l-.3.3-3.2.7h-.4c-.2-2.8-1-1.5-.8.3l-.3.2-3.1,1.2h-.4c-1.9-3.4-2.4-2.2-.6.5l-.2.3-2.4,1c0,.4-.3.4-.5.1-.5-1.3-2.6-2.1-1.1-.1.3.5.3.9,0,1.1l-1.9,1h-.3c0,0-2-1.6-2-1.6-2.6-1.4.6,1.6,1.4,1.9v.4c-.5,1-2,1.5-2.6,2.4l-.3.3c-.9-1-3.7-1.4-1.4,0,.5.3.5.6.4.9-.5.8-1.2,1.5-1.8,2.2s-.4.1-.4.2h-.3c-3.4-2-4.2-.5-.3.5v.3c-.5.7-1,1.6-1.6,2.4l-.2.3c-1.4-.4-2.6-.3-.8.9v.4l-1,2.4v.2c-1.4-.6-3-.6-.9.6v.4c-.3,1.3-1.1,2.6-1,4.1-2.2-.5-4.7-.9-6.9-1.6s-1.4-.5-1.5-1.1c-.3-1.7.3-5.4,1.6-6.7s1.9-1.3,2.3-1.8c.6-1,.9-4.5,1.2-5.8.6-2.8,3.2-2.7,5.4-3.6,1-3,.9-6.6,4.8-7.4,3.8-.7,1.6,0,2.6,0,1.7,0,1.3-.7,2.2-1.6,1.3-1.5,3.4-3.6,5.4-3.5s3.6.8,4.2.6.7-.7,1.1-.9c1.8-1.2,4.5-2.8,6.8-2.4s3,2.1,4.6,1.3.7-.6,1.1-.8c1.8-1,4.1-2,6-1s2.4,2.2,3,2.3,2-.5,2.8-.7c2.2-.3,4.2-.1,5.9,1.6s2,3.8,2.6,4.2,2.7.4,3.7.7,2.9,1.6,3.4,2.6.3,1.4.5,2.1c.4,1,3,2.2,4,2.8s4.7,3.5,4.4,5.3c-.3,1.8-.3,1.1-.5,1.4-.9,2-4.4,4-6.1,5.3h-.4Z"/>
      <g>
        <path class="st4" d="M48.6,60c0-.1,0-.6-.2-.9-.2-.4-1.1-1.1-.3-1.6s1.6.9,2,1.4.3,0,.3,0c.2.3.5,1.3.9,1.6,0,.7-.8.9-1.3.7s-1.1-1.2-1.2-1.3h0Z"/>
        <path class="st4" d="M77.2,55.7c-.1.5-.3,1.4-1.1,1.1s-.4-1.1-.3-1.7.6-2.4.9-2.6c1.6-1,.6,2.5.5,3.1h0Z"/>
        <path class="st2" d="M35.2,75c.6.3,2.2.7,1.8,1.6s-2.1,0-2.7-.3-1.7-.7-1.3-1.6,1.6,0,2.2.3Z"/>
        <path class="st4" d="M43.1,64.1c1.4,1.8.3,2.4-1.3,1.2s-.3-.5-.6-.7-1.6-.7-.7-1.4,1.8.8,2.7.9h0Z"/>
        <path class="st2" d="M80.1,56.4c0-.3.6-1.9.7-2,.4-.5,1.2-.1,1.2.5s-.4,1.9-.5,2.2-.6,1.3-.7,1.3c-.2.1-.7.1-.9,0-.3-.3,0-1.6.2-2h0Z"/>
        <path class="st2" d="M46.7,61c.2.9-.3,1-1,.7s-2.3-1.7-2.5-1.9c-.4-.5-.1-1.2.5-1.1s3,2.1,3,2.4Z"/>
        <path class="st2" d="M72.5,54.7c0,.5.1,1.8-.6,1.8s-.7-1.3-.7-1.9-.2-2-.1-2.1c.1-.4.9-.4,1.1-.1s.4,1.9.4,2.4h0Z"/>
        <path class="st4" d="M58.6,55.4c.5,2.3-1.2,2.9-1.6.5s-.2-3,1-2.3.1,1.3.5,1.8h0Z"/>
        <path class="st2" d="M54,57.1c.1.4.3,1.1-.2,1.3-.5.3-.7,0-1-.4s-1.1-2.1-1.1-2.2c-.3-.9.2-1.5,1-.8s1.3,2,1.3,2.2h0Z"/>
        <path class="st4" d="M68.6,54.3c-.1,1.6-1.6,1.7-1.6,0s.1-3.4,1.3-2.4.3,1.9.3,2.4Z"/>
        <path class="st2" d="M61.9,54.7c0-.2-.3-1.9-.3-2,0-.6.9-.8,1.2-.3s.4,1.6.5,2.1.4,1.2,0,1.5c-1,.4-1.2-.5-1.4-1.3h0Z"/>
        <path class="st2" d="M39.5,67.8c-.1.2-.1.4-.5.9-.3,0-.6,0-.9-.2-.5-.2-2-.8-2.1-1.1-.4-1.8,3,0,3.6.5h0Z"/>
        <path class="st6" d="M60.4,45.1c1.9,0,3.4,1.8,4,3.3s.9,2.2-.5,2.4-4,.3-5.8.5-2,.9-1.8-.9,2.3-5.3,4.2-5.4h0Z"/>
        <path class="st6" d="M81.9,47.1c1.3-.2,3,.8,3.2,2.2.3,1.9,0,5.4-2.7,4.5s-4-1.8-4.6-2.3-.3-.4-.4-.7c-.3-1.5,3.2-3.4,4.4-3.6h0Z"/>
        <path class="st6" d="M95.8,60.9c1.6-.3,6.5.1,6.7,2.3.2,2.2-.5,2.4-.9,3.2s-1,1.8-2.1,1.2l-4.5-4.9c-.5-.9-.3-1.6.7-1.8Z"/>
        <path class="st6" d="M72.1,44.8c1.5-.2,2.3.8,2.9,2s1.8,3.8-.7,3.8-3.3-.3-4.5-.5-1.8-.4-2-.7c-.3-.7,1-2.4,1.6-2.9s1.8-1.6,2.6-1.7h0Z"/>
        <path class="st6" d="M91.6,53.5c2.8-.2,3.5,2,2.6,4.4-1.4,4-3.4,1.4-5.3-.3s-1.3-.7-1.5-1.3c-.3-1.7,2.8-2.7,4.1-2.8h0Z"/>
        <path class="st6" d="M49.2,47.8c1.6-.3,3,1.7,3.7,3s.9,1.8.3,2.4-4.9,1.5-5.5,1.3-.6-.7-.6-1.1c-.1-1.3.7-5.2,2.2-5.5h0Z"/>
        <path class="st6" d="M27.7,78c-.3-.3-1.6-4.6-1.6-5.2,0-2.8,5.6,0,5.7,1.4s-1.3,2.4-1.8,2.8-1.8,1.5-2.3.9h0Z"/>
        <path class="st6" d="M38.8,53.5c1.6-.5,4.2,2.3,4,3.6s-3.9,2-4.7,2.5c-.8-.1-.7-2.8-.6-3.5s.6-2.4,1.3-2.6h0Z"/>
        <path class="st6" d="M32.2,61.9c1.3-.3,2.8.5,3.7,1.3.9.8,1.1,1.1.3,2.1-.7.2-3.1,2.9-3.4,2.9s-.7-.5-.8-.7c-.5-1.1-1.6-5.2.1-5.5h0Z"/>
      </g>
    </g>
    <g>
      <path class="st5" d="M67,54.3c.3.2.5.5.7.9.3-.3.6-.7.9-.9.2-.5,2.4-.4,2.6.2h.3c0,1.5.7,2.4.7.4l.3-.2c0-.5,3,0,3.1.1s.1.2.2.4l.3.2c-.4,1.1.3,1.8.7.4h.4c0-.1.3-.4.3-.4.5,0,2.6.5,2.6,1l.3.2c-.6,1.6-.1,2.3.7.5h.4c.4-.5,2.4.4,2.4,1v.3c-2.3,2.4-1.8,3.6.7.4.3-.2.4-.1.6.1,0-.1.2-.3.3-.2s2.2,1.2,2.4,1.3v.4c.3,0,.4.2.3.5-.3,0-2.2,2.9-1,2.1l1.6-1.6h.4c.8-.3,2.4,1.3,2.4,2.1v.3c-2.4.9-4,5.3-.5,1.1.2-.5.5-.9.9-1.1h.3c0-.1,2,1.7,2,1.7v.4c.1.1.3.3.1.4-2,2.1-2.5,2.9-1.3,2.4l1.8-1.8c.1-.1.3,0,.5.1h.4c.5.7,2.6,3.4,2.4,4.1l-.3.4c-9.8,7.1-19.1,11.1-31.4,11.5-12.3.4-21.8-.3-33.1-2.9-.4-.3-.5-.7-.2-1.4.1-.8.6-2.4,1.2-2.7l.3-.3c1.8,1.1,3.4.4.6-.5v-.4c-.5-.4.3-2.4.9-2.4v-.2c1.6.4,3.9.7,1.1-.9v-.5c0-1,.7-2.1,1.7-2.4-.2-.4,0-.9.5-.9.3-.7,1.1-1.7,1.8-2.3h.5c0-.1.4-.3.4-.3,1.1.7,1.8.7.9-.7v-.4c0-.1,0-.3,0-.4s2.1-1.9,2.3-2h.4c.5,0,.8-.3,1-.7-.2-.5,1.5-1.4,1.9-1h.4c.8,1.1,1.4,1.3,1.9.7-.5-.6-.7-1.1-.5-1.8,0-.6,2-1.4,2.4-1,.3.1.6.1.9.1,0-.4.1-.7.3-.9-.3-.4,2.6-1.4,2.8-1.4s.3.1.3.2l.4.2c.4,1.8,1.1.9.9-.4l.3-.3c0-.1,0-.3.1-.4.3,0,2.7-.6,2.8-.6s.2.1.3.3h.4c.1,1.3,1.2,1.4.7,0l.3-.3c0-.1,0-.3.1-.3.3,0,3.2-.2,3.4-.1s.2.2.3.3h0Z"/>
      <g>
        <path class="st8" d="M63.2,58.5c3.4-.3,9.8,0,12.5,2.3s1.8,1.8.7,2.4-4-.9-5.1-1.2c-6.6-1.7-10.6-.9-16.4,2.6s-4,3.3-5.8,2.4-.5-2,.4-2.8c3.4-2.8,9.2-5.3,13.6-5.6Z"/>
        <path class="st8" d="M70.4,65.9c.7,0,1.3-.2,1.8.5s.4,1.1-.4,1.3c-2,.5-5.1.5-7.4.7s-5.7,1-8.4,1.7c-.6,0-1.1-.7-.7-1.2s3.4-1.2,4.2-1.4c3.2-.7,7.5-1.3,10.8-1.6h0Z"/>
        <path class="st8" d="M43.4,69.3c.8-.2,1.4.2,1.4,1.1s-1.5,4.2-2,4.9c-.7.9-1.9,1.5-2,0s1.1-5.6,2.6-5.9h0Z"/>
        <path class="st8" d="M81.7,64.5c1.4-.4,4.5,2.8,4.8,4.1s-.5,1.7-1.6.9-2.6-2.5-3-3-1-1.8-.1-2h0Z"/>
        <path class="st4" d="M37.3,71c.4.5,1.1.5,1.6,1.1s-.2,1-.7.9-1.6-.4-1.8-.5-1.1-.8-1.1-.9c-.7-1.3,1.5-.9,2.2-.7h0Z"/>
        <path class="st4" d="M85.3,59s-.3,0-.5.3c-.5.6-2,2.9-2.7,1.5s1.4-2.2,1.8-2.6.9-.8,1.4-.5.1,1.1,0,1.3Z"/>
        <path class="st4" d="M91.6,63.6c.1.1.3.3.3.3,0,.7-1,2-1.6,2.5s-1.6,1.3-1.8.1.9-1.5,1.1-1.8c.5-.5,1-1.2,1.8-1.2Z"/>
        <path class="st2" d="M89.2,61.6c-.3.5-1.5,1.3-1.9,2-2,0,0-1.9.5-2.6s.1-.4.1-.4c1.3-1.3,2-.2,1.2,1Z"/>
        <path class="st2" d="M95.2,67.2c-.9.2-2.2,3.1-3.1,2s1.8-2.4,2.1-3.2c.2,0,.6-.1.9.3s0,.7.1.9Z"/>
        <path class="st4" d="M48.8,80.3c.6-.4,1.5.5.9.9s-1.3-.6-.9-.9Z"/>
      </g>
    </g>
  </g>
</svg>