<?xml version="1.0" encoding="UTF-8"?>
<svg id="Layer_1" data-name="Layer 1" xmlns="http://www.w3.org/2000/svg" width="176.3118" height="525" viewBox="0 0 176.3118 525">
  <g>
    <path d="M88.1559,175.8115C39.8224,175.8115.5002,136.4893.5002,88.1558S39.8224.5,88.1559.5s87.6562,39.3223,87.6562,87.6558-39.3223,87.6558-87.6562,87.6558Z" style="fill: #fff;"/>
    <path d="M88.1559,1c48.0579,0,87.1559,39.098,87.1559,87.1559s-39.098,87.1559-87.1559,87.1559S1,136.2139,1,88.1559,40.098,1,88.1559,1M88.1559,0C39.4688,0,0,39.4688,0,88.1559s39.4688,88.1559,88.1559,88.1559,88.1559-39.4688,88.1559-88.1559S136.8431,0,88.1559,0h0Z"/>
  </g>
  <g>
    <rect x="2.8615" y="174.4502" width="170.5894" height="350.0498" style="fill: #fff;"/>
    <path d="M172.9505,174.9505v349.0495H3.3613V174.9505h169.5892M173.9505,173.9505H2.3613v351.0495h171.5892V173.9505h0Z"/>
  </g>
  <g>
    <path d="M26.3804,73.6556c0-2.5212.6265-4.4256,1.8778-5.7165,1.251-1.291,2.9409-1.9363,5.0697-1.9363,2.1269,0,3.8168.6453,5.0693,1.9363,1.2514,1.291,1.8778,3.1953,1.8778,5.7165,0,2.5197-.6265,4.4256-1.8778,5.7161-1.2525,1.291-2.9424,1.9363-5.0693,1.9363-2.1288,0-3.8187-.6453-5.0697-1.9363-1.2514-1.2906-1.8778-3.1965-1.8778-5.7161ZM65.9986,73.6556c0-2.5212.6242-4.4256,1.8771-5.7165,1.2514-1.291,2.9424-1.9363,5.0701-1.9363s3.8172.6453,5.0701,1.9363c1.2514,1.291,1.8771,3.1953,1.8771,5.7165,0,2.5197-.6257,4.4256-1.8771,5.7161-1.2529,1.291-2.9424,1.9363-5.0701,1.9363s-3.8187-.6453-5.0701-1.9363c-1.2529-1.2906-1.8771-3.1965-1.8771-5.7161Z"/>
    <path d="M16.0535,111.9175h8.1678c.9389,3.9951,2.7226,7.4368,5.3514,10.3265,2.6284,2.8886,5.9144,5.117,9.8573,6.6846,3.9432,1.5673,8.3557,2.3509,13.2375,2.3509h16.8993c4.9425,0,9.3715-.7836,13.284-2.3509,3.9109-1.5677,7.1823-3.796,9.8096-6.6846,2.6288-2.8898,4.4136-6.3314,5.3514-10.3265h8.1678c-2.0031,8.7892-6.1954,15.5965-12.5799,20.4225-6.3845,4.8245-14.3954,7.2377-24.0329,7.2377h-16.8993c-9.639,0-17.6499-2.4132-24.0336-7.2377-6.3841-4.826-10.5764-11.6333-12.5803-20.4225Z"/>
  </g>
</svg>