<?xml version="1.0" encoding="UTF-8"?>
<svg xmlns="http://www.w3.org/2000/svg" width="1991.5" height="1111" viewBox="0 0 1991.5 1111">
  <defs>
    <style>
      .cls-1 {
        fill: none;
        stroke: #b3b3b3;
        stroke-miterlimit: 10;
        stroke-width: 10px;
      }

      .cls-2 {
        fill: #b25326;
      }

      .cls-3, .cls-4 {
        fill-rule: evenodd;
      }

      .cls-5 {
        fill: #b3b3b3;
      }

      .cls-4 {
        fill: #ccc;
      }
    </style>
  </defs>
  <g id="Layer_1" data-name="Layer 1">
    <g>
      <polygon class="cls-2" points="181.5 804.2734 721.5 457.9146 721.5 763.7266 181.5 1110.085 181.5 804.2734"/>
      <path d="M721,458.8295v304.6239l-539,345.7172v-304.6239l539-345.7172M722,457L181,804v307l541-347v-307h0Z"/>
    </g>
    <g>
      <polygon class="cls-2" points="1.7056 803.5 541.1465 457.5 720.2944 457.5 180.8535 803.5 1.7056 803.5"/>
      <path d="M718.5887,458L180.7068,803H3.4113l537.8818-345h177.2955M722,457h-181L0,804h181l541-347h0Z"/>
    </g>
  </g>
  <g id="Layer_2" data-name="Layer 2">
    <g>
      <line class="cls-1" x1="72.5" y1="159.5" x2="1991.5" y2="159.5"/>
      <g>
        <path class="cls-3" d="M1739,315c-85.4678,0-155-69.5327-155-155S1653.5322,5,1739,5s155,69.5327,155,155-69.5322,155-155,155Z"/>
        <path class="cls-5" d="M1739,10c40.0664,0,77.7347,15.6027,106.066,43.934,28.3312,28.3313,43.934,65.9995,43.934,106.066s-15.6028,77.7347-43.934,106.066c-28.3313,28.3313-65.9996,43.934-106.066,43.934s-77.7347-15.6027-106.066-43.934c-28.3312-28.3313-43.934-65.9995-43.934-106.066s15.6028-77.7347,43.934-106.066c28.3313-28.3313,65.9996-43.934,106.066-43.934M1739,0c-88.3656,0-160,71.6345-160,160s71.6344,160,160,160,160-71.6345,160-160S1827.3656,0,1739,0h0Z"/>
      </g>
      <g>
        <path class="cls-4" d="M1739,170c-5.5137,0-10-4.4858-10-10s4.4863-10,10-10,10,4.4858,10,10-4.4863,10-10,10Z"/>
        <path class="cls-5" d="M1739,155c2.757,0,5,2.243,5,5s-2.243,5-5,5-5-2.243-5-5,2.243-5,5-5M1739,145c-8.2843,0-15,6.7157-15,15s6.7157,15,15,15,15-6.7157,15-15-6.7157-15-15-15h0Z"/>
      </g>
    </g>
  </g>
</svg>