<?xml version="1.0" encoding="UTF-8"?>
<svg id="Layer_1" data-name="Layer 1" xmlns="http://www.w3.org/2000/svg" width="1920" height="1080" viewBox="0 0 1920 1080">
  <defs>
    <style>
      .cls-1 {
        fill: #fff5e3;
      }

      .cls-2 {
        fill: #d6b262;
      }

      .cls-3 {
        fill: #ffe5c3;
      }

      .cls-4 {
        fill: #593b17;
      }

      .cls-5 {
        fill: #a6a6a6;
      }

      .cls-6 {
        fill: #fff;
      }

      .cls-7 {
        fill: #63503d;
      }

      .cls-8 {
        fill: #b00012;
      }

      .cls-9 {
        fill: #fffefc;
      }

      .cls-10 {
        fill: #00c32e;
      }

      .cls-11 {
        fill: #7c6a00;
      }
    </style>
  </defs>
  <g>
    <rect class="cls-9" x="2.5" y="2.5" width="1915" height="1075"/>
    <path class="cls-5" d="M1915,5v1070H5V5h1910M1920,0H0v1080h1920V0h0Z"/>
  </g>
  <g>
    <rect class="cls-7" x="2.5" y="313.5" width="1915" height="764"/>
    <path class="cls-4" d="M1915,316v759H5V316h1910M1920,311H0v769h1920V311h0Z"/>
  </g>
  <g>
    <polygon class="cls-2" points="430.2642 1002.9072 510.0459 542.5 1378.7949 542.5 1488.9004 1002.9072 430.2642 1002.9072"/>
    <path class="cls-11" d="M1376.8228,545l108.9094,455.4071H433.2344l78.9156-455.4071h864.6728M1380.7681,540H507.9419l-80.6484,465.4071h1064.7754l-111.3008-465.4071h0Z"/>
  </g>
  <g>
    <rect class="cls-2" x="429.6553" y="1007.9072" width="1059.7754" height="55.5928"/>
    <path class="cls-11" d="M1486.9307,1010.407v50.593H432.1552v-50.593h1054.7754M1491.9307,1005.407H427.1552v60.593h1064.7754v-60.593h0Z"/>
  </g>
  <g>
    <g>
      <path class="cls-6" d="M216,981.5c-102.8364,0-186.5-52.0371-186.5-116s83.6636-116,186.5-116,186.5,52.0376,186.5,116-83.6636,116-186.5,116Z"/>
      <path class="cls-11" d="M216,752c49.5565,0,96.0753,12.0549,130.9872,33.9441,34.1858,21.434,53.0128,49.6875,53.0128,79.5559s-18.827,58.1219-53.0128,79.556c-34.9118,21.8892-81.4307,33.944-130.9872,33.944s-96.0754-12.0549-130.9872-33.944c-34.1858-21.434-53.0128-49.6875-53.0128-79.556s18.827-58.1219,53.0128-79.5559c34.9118-21.8892,81.4306-33.9441,130.9872-33.9441M216,747c-104.3818,0-189,53.0542-189,118.5s84.6182,118.5,189,118.5,189-53.0543,189-118.5-84.6182-118.5-189-118.5h0Z"/>
    </g>
    <g>
      <path class="cls-1" d="M216,949.5c-81.3315,0-147.5-40.5977-147.5-90.5s66.1685-90.5,147.5-90.5,147.5,40.5977,147.5,90.5-66.1685,90.5-147.5,90.5Z"/>
      <path class="cls-3" d="M216,771c39.148,0,75.8807,9.4072,103.4313,26.4886,26.806,16.6197,41.5687,38.4648,41.5687,61.5114s-14.7627,44.8917-41.5687,61.5114c-27.5506,17.0814-64.2833,26.4886-103.4313,26.4886s-75.8806-9.4072-103.4313-26.4886c-26.806-16.6197-41.5687-38.4648-41.5687-61.5114s14.7627-44.8917,41.5687-61.5114c27.5507-17.0814,64.2833-26.4886,103.4313-26.4886M216,766c-82.8427,0-150,41.6375-150,93s67.1573,93,150,93,150-41.6375,150-93-67.1573-93-150-93h0Z"/>
    </g>
    <g>
      <path class="cls-1" d="M216,939.5c-81.3315,0-147.5-40.5977-147.5-90.5s66.1685-90.5,147.5-90.5,147.5,40.5977,147.5,90.5-66.1685,90.5-147.5,90.5Z"/>
      <path class="cls-3" d="M216,761c39.148,0,75.8807,9.4072,103.4313,26.4886,26.806,16.6197,41.5687,38.4648,41.5687,61.5114s-14.7627,44.8917-41.5687,61.5114c-27.5506,17.0814-64.2833,26.4886-103.4313,26.4886s-75.8806-9.4072-103.4313-26.4886c-26.806-16.6197-41.5687-38.4648-41.5687-61.5114s14.7627-44.8917,41.5687-61.5114c27.5507-17.0814,64.2833-26.4886,103.4313-26.4886M216,756c-82.8427,0-150,41.6375-150,93s67.1573,93,150,93,150-41.6375,150-93-67.1573-93-150-93h0Z"/>
    </g>
    <g>
      <path class="cls-1" d="M216,929.5c-81.3315,0-147.5-40.5977-147.5-90.5s66.1685-90.5,147.5-90.5,147.5,40.5977,147.5,90.5-66.1685,90.5-147.5,90.5Z"/>
      <path class="cls-3" d="M216,751c39.148,0,75.8807,9.4072,103.4313,26.4886,26.806,16.6197,41.5687,38.4648,41.5687,61.5114s-14.7627,44.8917-41.5687,61.5114c-27.5506,17.0814-64.2833,26.4886-103.4313,26.4886s-75.8806-9.4072-103.4313-26.4886c-26.806-16.6197-41.5687-38.4648-41.5687-61.5114s14.7627-44.8917,41.5687-61.5114c27.5507-17.0814,64.2833-26.4886,103.4313-26.4886M216,746c-82.8427,0-150,41.6375-150,93s67.1573,93,150,93,150-41.6375,150-93-67.1573-93-150-93h0Z"/>
    </g>
    <g>
      <path class="cls-1" d="M216,919.5c-81.3315,0-147.5-40.5977-147.5-90.5s66.1685-90.5,147.5-90.5,147.5,40.5981,147.5,90.5-66.1685,90.5-147.5,90.5Z"/>
      <path class="cls-3" d="M216,741c39.148,0,75.8807,9.4071,103.4313,26.4886,26.806,16.6197,41.5687,38.4648,41.5687,61.5114s-14.7627,44.8917-41.5687,61.5114c-27.5506,17.0814-64.2833,26.4886-103.4313,26.4886s-75.8806-9.4072-103.4313-26.4886c-26.806-16.6197-41.5687-38.4648-41.5687-61.5114s14.7627-44.8917,41.5687-61.5114c27.5507-17.0815,64.2833-26.4886,103.4313-26.4886M216,736c-82.8427,0-150,41.6375-150,93s67.1573,93,150,93,150-41.6375,150-93-67.1573-93-150-93h0Z"/>
    </g>
    <g>
      <path class="cls-1" d="M216,909.5c-81.3315,0-147.5-40.5977-147.5-90.5s66.1685-90.5,147.5-90.5,147.5,40.5981,147.5,90.5-66.1685,90.5-147.5,90.5Z"/>
      <path class="cls-3" d="M216,731c39.148,0,75.8807,9.4071,103.4313,26.4886,26.806,16.6197,41.5687,38.4648,41.5687,61.5114s-14.7627,44.8917-41.5687,61.5114c-27.5506,17.0814-64.2833,26.4886-103.4313,26.4886s-75.8806-9.4072-103.4313-26.4886c-26.806-16.6197-41.5687-38.4648-41.5687-61.5114s14.7627-44.8917,41.5687-61.5114c27.5507-17.0815,64.2833-26.4886,103.4313-26.4886M216,726c-82.8427,0-150,41.6375-150,93s67.1573,93,150,93,150-41.6375,150-93-67.1573-93-150-93h0Z"/>
    </g>
    <g>
      <path class="cls-1" d="M216,899.5c-81.3315,0-147.5-40.5977-147.5-90.5s66.1685-90.5,147.5-90.5,147.5,40.5981,147.5,90.5-66.1685,90.5-147.5,90.5Z"/>
      <path class="cls-3" d="M216,721c39.148,0,75.8807,9.4071,103.4313,26.4886,26.806,16.6197,41.5687,38.4648,41.5687,61.5114s-14.7627,44.8917-41.5687,61.5114c-27.5506,17.0814-64.2833,26.4886-103.4313,26.4886s-75.8806-9.4072-103.4313-26.4886c-26.806-16.6197-41.5687-38.4648-41.5687-61.5114s14.7627-44.8917,41.5687-61.5114c27.5507-17.0815,64.2833-26.4886,103.4313-26.4886M216,716c-82.8427,0-150,41.6375-150,93s67.1573,93,150,93,150-41.6375,150-93-67.1573-93-150-93h0Z"/>
    </g>
    <g>
      <path class="cls-1" d="M216,889.5c-81.3315,0-147.5-40.5977-147.5-90.5s66.1685-90.5,147.5-90.5,147.5,40.5981,147.5,90.5-66.1685,90.5-147.5,90.5Z"/>
      <path class="cls-3" d="M216,711c39.148,0,75.8807,9.4071,103.4313,26.4886,26.806,16.6197,41.5687,38.4648,41.5687,61.5114s-14.7627,44.8917-41.5687,61.5114c-27.5506,17.0814-64.2833,26.4886-103.4313,26.4886s-75.8806-9.4072-103.4313-26.4886c-26.806-16.6197-41.5687-38.4648-41.5687-61.5114s14.7627-44.8917,41.5687-61.5114c27.5507-17.0815,64.2833-26.4886,103.4313-26.4886M216,706c-82.8427,0-150,41.6375-150,93s67.1573,93,150,93,150-41.6375,150-93-67.1573-93-150-93h0Z"/>
    </g>
    <g>
      <path class="cls-1" d="M216,879.5c-81.3315,0-147.5-40.5977-147.5-90.5s66.1685-90.5,147.5-90.5,147.5,40.5981,147.5,90.5-66.1685,90.5-147.5,90.5Z"/>
      <path class="cls-3" d="M216,701c39.148,0,75.8807,9.4071,103.4313,26.4886,26.806,16.6197,41.5687,38.4648,41.5687,61.5114s-14.7627,44.8917-41.5687,61.5114c-27.5506,17.0814-64.2833,26.4886-103.4313,26.4886s-75.8806-9.4072-103.4313-26.4886c-26.806-16.6197-41.5687-38.4648-41.5687-61.5114s14.7627-44.8917,41.5687-61.5114c27.5507-17.0815,64.2833-26.4886,103.4313-26.4886M216,696c-82.8427,0-150,41.6375-150,93s67.1573,93,150,93,150-41.6375,150-93-67.1573-93-150-93h0Z"/>
    </g>
  </g>
  <g>
    <g>
      <path class="cls-6" d="M863.3105,509.915c-60.2998,0-109.3569-34.04-109.3569-75.8809s49.0571-75.8809,109.3569-75.8809,109.3574,34.04,109.3574,75.8809-49.0576,75.8809-109.3574,75.8809Z"/>
      <path class="cls-11" d="M863.3108,360.6531c58.9212,0,106.8571,32.9185,106.8571,73.3809s-47.9359,73.3809-106.8571,73.3809-106.8572-32.9185-106.8572-73.3809,47.9359-73.3809,106.8572-73.3809M863.3108,355.6531c-61.777,0-111.8572,35.0923-111.8572,78.3809s50.0801,78.3809,111.8572,78.3809,111.8571-35.0923,111.8571-78.3809-50.0801-78.3809-111.8571-78.3809h0Z"/>
    </g>
    <g>
      <path class="cls-8" d="M865.0864,476.8428c-34.1924,0-62.0103-18.6104-62.0103-41.4858s27.8179-41.4858,62.0103-41.4858,62.0103,18.6104,62.0103,41.4858-27.8179,41.4858-62.0103,41.4858Z"/>
      <path class="cls-11" d="M865.0863,396.371c16.2367,0,31.4363,4.2668,42.7988,12.0143,10.7765,7.3479,16.7114,16.9266,16.7114,26.9716s-5.9349,19.6238-16.7114,26.9716c-11.3625,7.7475-26.5621,12.0143-42.7988,12.0143s-31.4363-4.2668-42.7988-12.0143c-10.7765-7.3478-16.7114-16.9266-16.7114-26.9716s5.9349-19.6237,16.7114-26.9716c11.3625-7.7475,26.5621-12.0143,42.7988-12.0143M865.0863,391.371c-35.628,0-64.5102,19.6931-64.5102,43.9859s28.8822,43.9859,64.5102,43.9859,64.5102-19.6932,64.5102-43.9859-28.8822-43.9859-64.5102-43.9859h0Z"/>
    </g>
    <g>
      <path d="M826.8604,415.6138c1.5732-.3706,4.0586-.6484,6.584-.6484,3.6035,0,5.9229.6948,7.6621,2.2686,1.4492,1.2036,2.3184,3.0557,2.3184,5.5093,0,3.0093-1.7803,5.6479-4.7207,6.8516v.0928c2.6504.7407,5.7568,3.1943,5.7568,7.8237,0,2.6851-.9531,4.7222-2.3613,6.25-1.9463,1.9907-5.0938,2.9165-9.6484,2.9165-2.4854,0-4.3896-.1851-5.5908-.3706v-30.6934ZM830.4629,428.3911h3.2715c3.8105,0,6.0469-2.2222,6.0469-5.2314,0-3.6572-2.4854-5.0923-6.1289-5.0923-1.6572,0-2.6094.1387-3.1895.2778v10.0459ZM830.4629,443.3442c.7041.1392,1.7393.1855,3.0234.1855,3.7266,0,7.1641-1.5278,7.1641-6.0649,0-4.2593-3.2715-6.0181-7.2061-6.0181h-2.9814v11.8975Z"/>
      <path d="M863.7617,431.7705h-10.8506v11.25h12.0928v3.3794h-15.6953v-31.2031h15.0742v3.3799h-11.4717v9.8608h10.8506v3.333Z"/>
      <path d="M884.1377,431.7705h-10.8506v11.25h12.0928v3.3794h-15.6953v-31.2031h15.0742v3.3799h-11.4717v9.8608h10.8506v3.333Z"/>
      <path d="M890.0615,415.1968h15.0322v3.3799h-11.4297v10.3701h10.5605v3.333h-10.5605v14.1201h-3.6025v-31.2031Z"/>
    </g>
  </g>
  <g>
    <g>
      <path class="cls-6" d="M133.0815,509.915c-60.2998,0-109.3569-34.04-109.3569-75.8809s49.0571-75.8809,109.3569-75.8809,109.3574,34.04,109.3574,75.8809-49.0576,75.8809-109.3574,75.8809Z"/>
      <path class="cls-11" d="M133.0816,360.6531c58.9212,0,106.8572,32.9185,106.8572,73.3809s-47.9359,73.3809-106.8572,73.3809-106.8571-32.9185-106.8571-73.3809,47.9359-73.3809,106.8571-73.3809M133.0816,355.6531c-61.777,0-111.8571,35.0923-111.8571,78.3809s50.0801,78.3809,111.8571,78.3809,111.8572-35.0923,111.8572-78.3809-50.0802-78.3809-111.8572-78.3809h0Z"/>
    </g>
    <g>
      <path class="cls-8" d="M134.8569,476.8428c-34.1924,0-62.0098-18.6104-62.0098-41.4858s27.8174-41.4858,62.0098-41.4858,62.0103,18.6104,62.0103,41.4858-27.8179,41.4858-62.0103,41.4858Z"/>
      <path class="cls-11" d="M134.8571,396.371c16.2367,0,31.4362,4.2668,42.7988,12.0143,10.7765,7.3479,16.7114,16.9266,16.7114,26.9716s-5.9349,19.6238-16.7114,26.9716c-11.3626,7.7475-26.5622,12.0143-42.7988,12.0143s-31.4362-4.2668-42.7988-12.0143c-10.7765-7.3478-16.7114-16.9266-16.7114-26.9716s5.9349-19.6237,16.7114-26.9716c11.3626-7.7475,26.5622-12.0143,42.7988-12.0143M134.8571,391.371c-35.628,0-64.5102,19.6931-64.5102,43.9859s28.8822,43.9859,64.5102,43.9859,64.5102-19.6932,64.5102-43.9859-28.8822-43.9859-64.5102-43.9859h0Z"/>
    </g>
    <g>
      <path d="M106.6221,445.1123c-.7686.7563-2.3057,1.5127-4.2754,1.5127-4.5635,0-7.998-5.6724-7.998-16.1196,0-9.9741,3.4346-16.7344,8.4541-16.7344,2.0176,0,3.291.8511,3.8428,1.4185l-.5039,3.3564c-.793-.7568-1.9219-1.3237-3.2666-1.3237-3.7949,0-6.3164,4.7744-6.3164,13.1416,0,7.7998,2.2812,12.8105,6.2207,12.8105,1.2725,0,2.5693-.52,3.4102-1.3237l.4326,3.2617Z"/>
      <path d="M111.3301,414.291v13.3311h7.8291v-13.3311h2.1143v31.8613h-2.1143v-14.938h-7.8291v14.938h-2.0898v-31.8613h2.0898Z"/>
      <path d="M126.9912,414.291v31.8613h-2.0898v-31.8613h2.0898Z"/>
      <path d="M141.9541,445.1123c-.7686.7563-2.3057,1.5127-4.2754,1.5127-4.5635,0-7.998-5.6724-7.998-16.1196,0-9.9741,3.4346-16.7344,8.4541-16.7344,2.0176,0,3.291.8511,3.8428,1.4185l-.5039,3.3564c-.793-.7568-1.9219-1.3237-3.2666-1.3237-3.7949,0-6.3164,4.7744-6.3164,13.1416,0,7.7998,2.2812,12.8105,6.2207,12.8105,1.2725,0,2.5693-.52,3.4102-1.3237l.4326,3.2617Z"/>
      <path d="M144.5732,414.291h2.0898v15.3633h.0723c.4316-1.229.8643-2.3633,1.2725-3.4033l4.9473-11.96h2.5938l-5.8594,13.52,6.3164,18.3413h-2.4736l-5.332-15.647-1.5371,3.498v12.1489h-2.0898v-31.8613Z"/>
      <path d="M165.9727,431.2144h-6.292v11.4873h7.0127v3.4507h-9.1025v-31.8613h8.7422v3.4512h-6.6523v10.0688h6.292v3.4033Z"/>
      <path d="M169.4082,446.1523v-31.8613h2.2822l5.1875,16.1196c1.2002,3.7349,2.1377,7.0908,2.9062,10.3525l.0479-.0469c-.1924-4.2549-.2402-8.1309-.2402-13.0942v-13.3311h1.9697v31.8613h-2.1143l-5.1396-16.167c-1.1289-3.5454-2.209-7.1851-3.0264-10.6362l-.0713.0474c.1201,4.0181.168,7.8472.168,13.1416v13.6143h-1.9697Z"/>
    </g>
  </g>
  <g>
    <g>
      <path class="cls-6" d="M619.9009,509.915c-60.2998,0-109.3569-34.04-109.3569-75.8809s49.0571-75.8809,109.3569-75.8809,109.3574,34.04,109.3574,75.8809-49.0576,75.8809-109.3574,75.8809Z"/>
      <path class="cls-11" d="M619.9011,360.6531c58.9212,0,106.8571,32.9185,106.8571,73.3809s-47.9359,73.3809-106.8571,73.3809-106.8571-32.9185-106.8571-73.3809,47.9359-73.3809,106.8571-73.3809M619.9011,355.6531c-61.777,0-111.8571,35.0923-111.8571,78.3809s50.0801,78.3809,111.8571,78.3809,111.8571-35.0923,111.8571-78.3809-50.0801-78.3809-111.8571-78.3809h0Z"/>
    </g>
    <g>
      <path class="cls-8" d="M621.6768,476.8428c-34.1924,0-62.0103-18.6104-62.0103-41.4858s27.8179-41.4858,62.0103-41.4858,62.0103,18.6104,62.0103,41.4858-27.8179,41.4858-62.0103,41.4858Z"/>
      <path class="cls-11" d="M621.6766,396.371c16.2367,0,31.4363,4.2668,42.7988,12.0143,10.7765,7.3479,16.7114,16.9266,16.7114,26.9716s-5.9349,19.6238-16.7114,26.9716c-11.3625,7.7475-26.5621,12.0143-42.7988,12.0143s-31.4363-4.2668-42.7988-12.0143c-10.7765-7.3478-16.7114-16.9266-16.7114-26.9716s5.9349-19.6237,16.7114-26.9716c11.3625-7.7475,26.5621-12.0143,42.7988-12.0143M621.6766,391.371c-35.628,0-64.5102,19.6931-64.5102,43.9859s28.8822,43.9859,64.5102,43.9859,64.5102-19.6932,64.5102-43.9859-28.8822-43.9859-64.5102-43.9859h0Z"/>
    </g>
    <g>
      <path d="M583.4507,415.5674c1.7393-.3242,4.0166-.6021,6.916-.6021,3.5615,0,6.1699.9263,7.8271,2.5928,1.5322,1.4814,2.4424,3.75,2.4424,6.5273,0,2.8242-.7451,5.0464-2.1533,6.6665-1.9043,2.2686-5.0107,3.4258-8.5303,3.4258-1.0771,0-2.0713-.0459-2.8994-.2773v12.4995h-3.6025v-30.8325ZM587.0532,430.6133c.7871.2314,1.7812.3242,2.9814.3242,4.3486,0,6.999-2.3613,6.999-6.6665,0-4.1206-2.6084-6.1113-6.584-6.1113-1.5742,0-2.7754.1392-3.3965.3242v12.1294Z"/>
      <path d="M629.3384,430.4746c0,10.7402-5.8389,16.4346-12.9619,16.4346-7.3721,0-12.5479-6.3887-12.5479-15.833,0-9.9072,5.5078-16.3887,12.9619-16.3887,7.6201,0,12.5479,6.5278,12.5479,15.7871ZM607.6792,430.9834c0,6.6665,3.2305,12.6387,8.9043,12.6387,5.7148,0,8.9443-5.8794,8.9443-12.9624,0-6.2036-2.8984-12.6851-8.9033-12.6851-5.9629,0-8.9453,6.1572-8.9453,13.0088Z"/>
      <path d="M634.021,415.6138c1.8223-.417,4.4307-.6484,6.916-.6484,3.8506,0,6.3359.7871,8.0752,2.5464,1.4082,1.3887,2.1943,3.5186,2.1943,5.9258,0,4.1201-2.3184,6.8516-5.2588,7.9629v.1387c2.1533.8335,3.4375,3.0557,4.0996,6.2964.9111,4.3516,1.5742,7.3608,2.1533,8.5645h-3.7266c-.4561-.8794-1.0771-3.5649-1.8643-7.4536-.8281-4.3052-2.3184-5.9258-5.5898-6.0645h-3.3965v13.5181h-3.6025v-30.7861ZM637.6235,429.8262h3.6855c3.8516,0,6.2949-2.3608,6.2949-5.9258,0-4.0278-2.6084-5.7866-6.4189-5.833-1.7393,0-2.9814.1851-3.5615.3701v11.3887Z"/>
      <path d="M656.3032,415.1968h3.6025v15.0459h.124c.7461-1.2036,1.4912-2.3145,2.1953-3.333l8.5312-11.7129h4.4727l-10.1055,13.2407,10.8916,17.9624h-4.2656l-9.1934-15.3237-2.6504,3.4258v11.8979h-3.6025v-31.2031Z"/>
    </g>
  </g>
  <g>
    <g>
      <path class="cls-6" d="M1106.7207,509.915c-60.2998,0-109.3574-34.04-109.3574-75.8809s49.0576-75.8809,109.3574-75.8809,109.3574,34.04,109.3574,75.8809-49.0576,75.8809-109.3574,75.8809Z"/>
      <path class="cls-11" d="M1106.7205,360.6531c58.9213,0,106.8572,32.9185,106.8572,73.3809s-47.9359,73.3809-106.8572,73.3809-106.8571-32.9185-106.8571-73.3809,47.9359-73.3809,106.8571-73.3809M1106.7205,355.6531c-61.777,0-111.8571,35.0923-111.8571,78.3809s50.0801,78.3809,111.8571,78.3809,111.8572-35.0923,111.8572-78.3809-50.0801-78.3809-111.8572-78.3809h0Z"/>
    </g>
    <g>
      <path class="cls-10" d="M1108.4961,476.8428c-34.1924,0-62.0107-18.6104-62.0107-41.4858s27.8184-41.4858,62.0107-41.4858,62.0098,18.6104,62.0098,41.4858-27.8174,41.4858-62.0098,41.4858Z"/>
      <path class="cls-11" d="M1108.496,396.371c16.2367,0,31.4363,4.2668,42.799,12.0143,10.7764,7.3479,16.7113,16.9266,16.7113,26.9716s-5.9349,19.6238-16.7113,26.9716c-11.3627,7.7475-26.5623,12.0143-42.799,12.0143s-31.4362-4.2668-42.7987-12.0143c-10.7766-7.3478-16.7114-16.9266-16.7114-26.9716s5.9348-19.6237,16.7114-26.9716c11.3625-7.7475,26.5621-12.0143,42.7987-12.0143M1108.496,391.371c-35.6279,0-64.5101,19.6931-64.5101,43.9859s28.8822,43.9859,64.5101,43.9859,64.5103-19.6932,64.5103-43.9859-28.8822-43.9859-64.5103-43.9859h0Z"/>
    </g>
    <g>
      <path d="M1078.6494,446.9331c-.6738.6494-2.0225,1.2988-3.751,1.2988-4.0039,0-7.0166-4.8706-7.0166-13.8403,0-8.5645,3.0127-14.3687,7.417-14.3687,1.7705,0,2.8877.731,3.3721,1.2178l-.4424,2.8818c-.6953-.6494-1.6865-1.1362-2.8662-1.1362-3.3291,0-5.542,4.0991-5.542,11.2832,0,6.6973,2.002,10.9995,5.458,10.9995,1.1162,0,2.2549-.4463,2.9922-1.1362l.3789,2.8003Z"/>
      <path d="M1083.3232,439.2217l-1.4756,8.6045h-1.8965l4.8262-27.3564h2.2129l4.8467,27.3564h-1.96l-1.5176-8.6045h-5.0361ZM1087.9805,436.4614l-1.3906-7.874c-.3164-1.7861-.5273-3.4097-.7383-4.9927h-.042c-.2109,1.6235-.4424,3.2881-.7158,4.9521l-1.3916,7.9146h4.2783Z"/>
      <path d="M1093.9189,420.835c.8008-.3247,2.0654-.5684,3.3506-.5684,1.833,0,3.0137.6089,3.8984,1.9888.7373,1.0552,1.1797,2.6792,1.1797,4.8301,0,2.6382-.9062,4.9517-2.4023,6.0073v.0811c1.3486.6494,2.9297,2.8008,2.9297,6.8594,0,2.354-.4854,4.1401-1.2012,5.4795-.9902,1.7451-2.5918,2.5571-4.9102,2.5571-1.2646,0-2.2334-.1626-2.8447-.3247v-26.9102ZM1095.752,432.0371h1.665c1.9385,0,3.0762-1.9482,3.0762-4.5864,0-3.2065-1.2637-4.4644-3.1182-4.4644-.8428,0-1.3281.1216-1.623.2432v8.8076ZM1095.752,445.1475c.3584.1216.8857.1621,1.5381.1621,1.8965,0,3.6455-1.3394,3.6455-5.3169,0-3.7344-1.6641-5.2764-3.666-5.2764h-1.5176v10.4312Z"/>
      <path d="M1105.3359,420.835c.8008-.3247,2.0654-.5684,3.3506-.5684,1.833,0,3.0137.6089,3.8984,1.9888.7373,1.0552,1.1797,2.6792,1.1797,4.8301,0,2.6382-.9062,4.9517-2.4023,6.0073v.0811c1.3486.6494,2.9297,2.8008,2.9297,6.8594,0,2.354-.4854,4.1401-1.2012,5.4795-.9902,1.7451-2.5918,2.5571-4.9102,2.5571-1.2646,0-2.2334-.1626-2.8447-.3247v-26.9102ZM1107.1689,432.0371h1.665c1.9385,0,3.0762-1.9482,3.0762-4.5864,0-3.2065-1.2637-4.4644-3.1182-4.4644-.8428,0-1.3281.1216-1.623.2432v8.8076ZM1107.1689,445.1475c.3584.1216.8857.1621,1.5381.1621,1.8965,0,3.6455-1.3394,3.6455-5.3169,0-3.7344-1.6641-5.2764-3.666-5.2764h-1.5176v10.4312Z"/>
      <path d="M1119.0498,439.2217l-1.4756,8.6045h-1.8965l4.8262-27.3564h2.2129l4.8467,27.3564h-1.96l-1.5176-8.6045h-5.0361ZM1123.707,436.4614l-1.3906-7.874c-.3164-1.7861-.5273-3.4097-.7383-4.9927h-.042c-.2109,1.6235-.4424,3.2881-.7158,4.9521l-1.3916,7.9146h4.2783Z"/>
      <path d="M1140.1396,446.6084c-.8223.5684-2.4453,1.502-4.3623,1.502-2.1494,0-3.9199-1.0552-5.3105-3.6123-1.2217-2.2729-1.9805-5.9258-1.9805-10.188.0205-8.1582,2.9287-14.1245,7.6914-14.1245,1.6436,0,2.9287.6899,3.54,1.2583l-.4424,2.8818c-.7588-.6494-1.707-1.1772-3.1396-1.1772-3.4561,0-5.7109,4.1401-5.7109,10.9995,0,6.9404,2.1709,11.04,5.4785,11.04,1.2012,0,2.0234-.3247,2.4443-.7305v-8.1587h-2.8867v-2.8408h4.6787v13.1504Z"/>
      <path d="M1150.292,435h-5.5215v9.8633h6.1533v2.9629h-7.9863v-27.3564h7.6699v2.9629h-5.8369v8.6455h5.5215v2.9219Z"/>
    </g>
  </g>
  <g>
    <g>
      <path class="cls-6" d="M376.4912,509.915c-60.2998,0-109.3569-34.04-109.3569-75.8809s49.0571-75.8809,109.3569-75.8809,109.3574,34.04,109.3574,75.8809-49.0576,75.8809-109.3574,75.8809Z"/>
      <path class="cls-11" d="M376.4914,360.6531c58.9212,0,106.8571,32.9185,106.8571,73.3809s-47.9359,73.3809-106.8571,73.3809-106.8571-32.9185-106.8571-73.3809,47.9359-73.3809,106.8571-73.3809M376.4914,355.6531c-61.777,0-111.8571,35.0923-111.8571,78.3809s50.0802,78.3809,111.8571,78.3809,111.8571-35.0923,111.8571-78.3809-50.0802-78.3809-111.8571-78.3809h0Z"/>
    </g>
    <g>
      <path class="cls-8" d="M378.2671,476.8428c-34.1924,0-62.0103-18.6104-62.0103-41.4858s27.8179-41.4858,62.0103-41.4858,62.0098,18.6104,62.0098,41.4858-27.8174,41.4858-62.0098,41.4858Z"/>
      <path class="cls-11" d="M378.2668,396.371c16.2367,0,31.4363,4.2668,42.7989,12.0143,10.7765,7.3479,16.7114,16.9266,16.7114,26.9716s-5.9349,19.6238-16.7114,26.9716c-11.3626,7.7475-26.5622,12.0143-42.7989,12.0143s-31.4362-4.2668-42.7988-12.0143c-10.7765-7.3478-16.7114-16.9266-16.7114-26.9716s5.9348-19.6237,16.7114-26.9716c11.3626-7.7475,26.5622-12.0143,42.7988-12.0143M378.2668,391.371c-35.628,0-64.5102,19.6931-64.5102,43.9859s28.8822,43.9859,64.5102,43.9859,64.5102-19.6932,64.5102-43.9859-28.8822-43.9859-64.5102-43.9859h0Z"/>
    </g>
    <g>
      <path d="M332.749,450.4927c1.1309,1.1113,2.7832,2.0371,4.5225,2.0371,2.5801,0,4.0879-2.1758,4.0879-5.3242,0-2.916-1.0439-4.583-3.6816-6.2031-3.1895-1.8057-5.1602-4.4443-5.1602-8.8428,0-4.8613,2.5215-8.4717,6.3193-8.4717,2.001,0,3.4502.7402,4.3203,1.5273l-.6963,3.2871c-.6377-.5557-1.9424-1.4814-3.7109-1.4814-2.667,0-3.6816,2.5459-3.6816,4.6758,0,2.917,1.1885,4.3516,3.8848,6.0186,3.3047,2.0371,4.9863,4.583,4.9863,9.166,0,4.8145-2.2324,8.9814-6.8418,8.9814-1.8848,0-3.9424-.8799-4.9863-1.9902l.6377-3.3799Z"/>
      <path d="M349.9141,424.1968v13.0557h9.4512v-13.0557h2.5518v31.2031h-2.5518v-14.6289h-9.4512v14.6289h-2.5225v-31.2031h2.5225Z"/>
      <path d="M366.2969,424.6138c1.2754-.417,3.1025-.6484,4.8418-.6484,2.6963,0,4.4355.7871,5.6533,2.5469.9854,1.3887,1.5371,3.5176,1.5371,5.9258,0,4.1201-1.624,6.8516-3.6826,7.9619v.1396c1.5078.833,2.4062,3.0547,2.8701,6.2959.6377,4.3516,1.1016,7.3604,1.5078,8.5645h-2.6094c-.3184-.8799-.7539-3.5645-1.3047-7.4531-.5791-4.3057-1.623-5.9258-3.9141-6.0654h-2.377v13.5186h-2.5225v-30.7861ZM368.8193,438.8267h2.5801c2.6963,0,4.4072-2.3613,4.4072-5.9258,0-4.0283-1.8271-5.7871-4.4941-5.834-1.2178,0-2.0869.1855-2.4932.3711v11.3887Z"/>
      <path d="M384.4189,424.1968v31.2031h-2.5225v-31.2031h2.5225Z"/>
      <path d="M405.2939,441.6968c-.1455-4.3516-.3193-9.583-.29-13.4717h-.0869c-.667,3.6572-1.4785,7.5459-2.4648,11.8516l-3.4492,15.1377h-1.9141l-3.1602-14.8604c-.9277-4.3984-1.71-8.4258-2.2607-12.1289h-.0586c-.0576,3.8887-.2031,9.1201-.377,13.7959l-.5215,13.3789h-2.4062l1.3623-31.2031h3.2178l3.335,15.0928c.8115,3.8418,1.4785,7.2676,1.9707,10.5088h.0869c.4932-3.1484,1.1895-6.5742,2.0586-10.5088l3.4795-15.0928h3.2178l1.2178,31.2031h-2.4648l-.4922-13.7031Z"/>
      <path d="M412.1387,424.5669c1.2178-.3232,2.8125-.6016,4.8418-.6016,2.4932,0,4.3203.9258,5.4795,2.5928,1.0723,1.4814,1.7109,3.75,1.7109,6.5273,0,2.8242-.5225,5.0459-1.5078,6.667-1.334,2.2686-3.5078,3.4258-5.9727,3.4258-.7539,0-1.4492-.0469-2.0293-.2783v12.5h-2.5225v-30.833ZM414.6611,439.6128c.5508.2314,1.2471.3242,2.0879.3242,3.0439,0,4.8994-2.3604,4.8994-6.666,0-4.1201-1.8271-6.1113-4.6104-6.1113-1.1016,0-1.9424.1387-2.377.3242v12.1289Z"/>
    </g>
  </g>
  <g>
    <g>
      <path class="cls-6" d="M1350.1299,509.915c-60.2998,0-109.3564-34.04-109.3564-75.8809s49.0566-75.8809,109.3564-75.8809,109.3574,34.04,109.3574,75.8809-49.0576,75.8809-109.3574,75.8809Z"/>
      <path class="cls-11" d="M1350.1302,360.6531c58.9211,0,106.8571,32.9185,106.8571,73.3809s-47.9359,73.3809-106.8571,73.3809-106.8572-32.9185-106.8572-73.3809,47.9359-73.3809,106.8572-73.3809M1350.1302,355.6531c-61.777,0-111.8572,35.0923-111.8572,78.3809s50.0802,78.3809,111.8572,78.3809,111.8571-35.0923,111.8571-78.3809-50.0801-78.3809-111.8571-78.3809h0Z"/>
    </g>
    <g>
      <path class="cls-10" d="M1351.9053,476.8428c-34.1924,0-62.0098-18.6104-62.0098-41.4858s27.8174-41.4858,62.0098-41.4858,62.0107,18.6104,62.0107,41.4858-27.8184,41.4858-62.0107,41.4858Z"/>
      <path class="cls-11" d="M1351.9058,396.371c16.2367,0,31.4362,4.2668,42.7988,12.0143,10.7765,7.3479,16.7113,16.9266,16.7113,26.9716s-5.9349,19.6238-16.7113,26.9716c-11.3627,7.7475-26.5621,12.0143-42.7988,12.0143s-31.4363-4.2668-42.7988-12.0143c-10.7765-7.3478-16.7114-16.9266-16.7114-26.9716s5.9349-19.6237,16.7114-26.9716c11.3625-7.7475,26.5621-12.0143,42.7988-12.0143M1351.9058,391.371c-35.6281,0-64.5103,19.6931-64.5103,43.9859s28.8822,43.9859,64.5103,43.9859,64.5101-19.6932,64.5101-43.9859-28.8822-43.9859-64.5101-43.9859h0Z"/>
    </g>
    <g>
      <path d="M1329.0791,446.9331c-1.085.6494-3.2549,1.2988-6.0352,1.2988-6.4414,0-11.29-4.8711-11.29-13.8408,0-8.5645,4.8486-14.3682,11.9346-14.3682,2.8477,0,4.6445.7305,5.4248,1.2178l-.7119,2.8809c-1.1191-.6484-2.7129-1.1357-4.6113-1.1357-5.3574,0-8.917,4.0996-8.917,11.2832,0,6.6973,3.2207,11,8.7812,11,1.7969,0,3.6279-.4473,4.8145-1.1367l.6104,2.8008Z"/>
      <path d="M1335.7227,420.4692v11.4453h11.0527v-11.4453h2.9844v27.3564h-2.9844v-12.8262h-11.0527v12.8262h-2.9492v-27.3564h2.9492Z"/>
      <path d="M1357.8271,420.4692v27.3564h-2.9492v-27.3564h2.9492Z"/>
      <path d="M1367.998,447.8257l-7.459-27.3564h3.1865l3.5605,13.4756c.9834,3.6934,1.8311,7.0215,2.4414,10.2275h.0674c.6445-3.166,1.5938-6.6152,2.6104-10.1875l3.8652-13.5156h3.1533l-8.1709,27.3564h-3.2549Z"/>
      <path d="M1393.7295,434.9995h-8.8828v9.8633h9.9004v2.9629h-12.8496v-27.3564h12.3408v2.9629h-9.3916v8.6455h8.8828v2.9219Z"/>
    </g>
  </g>
</svg>